<svg width="206" height="72" viewBox="0 0 206 72" fill="none" xmlns="http://www.w3.org/2000/svg">
<path d="M71.8899 0.0546875H0V71.9446H71.8899V0.0546875Z" fill="black"/>
<path d="M47.0428 60.0054C41.36 59.7477 32.2189 57.6966 23.2314 48.7091C14.244 39.7216 12.1977 30.5805 11.9401 24.8977C11.7915 21.6327 13.8674 18.6798 16.9838 17.6889L19.9416 16.7475C21.0366 16.4007 22.2158 16.9556 22.6468 18.0209L26.3627 27.2709C26.6748 28.0537 26.5163 28.9455 25.9465 29.5698L23.0333 32.7704C22.5527 33.3006 22.4139 34.0586 22.6716 34.7225C23.3107 36.3624 24.9259 39.5878 28.6368 43.2988C32.3477 47.0097 35.5731 48.6199 37.2131 49.264C37.8819 49.5266 38.6399 49.3878 39.1651 48.9023L42.3657 45.989C42.99 45.4193 43.8818 45.2607 44.6646 45.5729L53.9147 49.2888C54.9799 49.7198 55.5398 50.899 55.188 51.9939L54.2467 54.9518C53.2607 58.078 50.3078 60.149 47.0428 60.0054Z" fill="white"/>
<path d="M57.5766 39.9628C57.3388 39.725 57.1852 39.398 57.1753 39.0313C56.9672 32.645 54.3612 26.6352 49.8327 22.1117C45.3043 17.5833 39.2945 14.9772 32.9131 14.7691C32.1501 14.7444 31.5556 14.1052 31.5803 13.3472C31.6051 12.5842 32.2442 11.9896 33.0023 12.0144C40.0872 12.2473 46.7609 15.1407 51.7848 20.1646C56.8087 25.1885 59.7071 31.8622 59.935 38.9471C59.9597 39.7101 59.3603 40.3443 58.6022 40.3691C58.2009 40.379 57.8392 40.2254 57.5766 39.9628Z" fill="white"/>
<path d="M51.2198 39.9623C50.982 39.7245 50.8334 39.4074 50.8185 39.0458C50.6154 34.3538 48.6682 29.9344 45.3388 26.6C42.0094 23.2656 37.585 21.3284 32.8931 21.1253C32.1301 21.0906 31.5405 20.4465 31.5752 19.6885C31.6099 18.9255 32.254 18.3359 33.012 18.3706C38.3975 18.6035 43.466 20.833 47.2909 24.6579C51.1158 28.4827 53.3453 33.5512 53.5782 38.9368C53.6128 39.6997 53.0183 40.3438 52.2603 40.3736C51.854 40.3835 51.4824 40.2299 51.2198 39.9623Z" fill="white"/>
<path d="M44.8578 39.9627C44.6299 39.7348 44.4812 39.4227 44.4564 39.0758C44.2632 36.0635 42.98 33.2295 40.8446 31.0941C38.7092 28.9587 35.8752 27.6755 32.8629 27.4823C32.1049 27.4327 31.5252 26.7788 31.5747 26.0158C31.6243 25.2528 32.2783 24.678 33.0413 24.7276C36.7225 24.9654 40.1857 26.531 42.7967 29.1421C45.4077 31.7531 46.9733 35.2163 47.2112 38.8975C47.2607 39.6555 46.681 40.3145 45.923 40.364C45.5118 40.3937 45.1303 40.2352 44.8578 39.9627Z" fill="white"/>
<path d="M154.595 55.9332L159.186 48.3828H165.738V61.8314H160.685V54.012L155.805 61.8314H153.058L148.178 54.012V61.8314H143.259V48.3828H150.022L154.595 55.9332Z" fill="#161616"/>
<path d="M128.487 48.3828H135.385L142.551 61.8314H137.421L136.23 59.5259H127.623L126.432 61.8314H121.321L128.487 48.3828ZM129.487 55.8948H134.386L132.388 51.9947H131.485L129.487 55.8948Z" fill="#161616"/>
<path d="M110.319 56.7978V58.1427H120.655V61.8314H105.266V48.3828H120.655V52.0331H110.319V53.1475H120.655V56.7978H110.319Z" fill="#161616"/>
<path d="M87.2549 52.1859V48.4395H104.335V52.1859H98.3596V61.8304H93.2107V52.1859H87.2549Z" fill="#161616"/>
<path d="M192.487 35.499C193.774 36.1522 194.427 37.1705 194.427 38.5346V38.7651C194.427 39.2646 194.35 39.7065 194.235 40.0908C194.101 40.4942 193.851 40.9169 193.467 41.3203C193.082 41.743 192.583 42.0888 191.949 42.3578C191.334 42.6268 190.527 42.8381 189.49 43.011C188.471 43.1647 187.261 43.2416 185.916 43.2416H184.629C183.227 43.2416 181.978 43.1455 180.94 42.9342C179.845 42.7036 179.038 42.4539 178.443 42.1273C177.828 41.8007 177.348 41.4164 176.983 40.9553C176.618 40.475 176.387 40.0715 176.291 39.6681C176.195 39.3031 176.156 38.7651 176.156 38.7459L176.137 38.3617L181.344 38.3809L181.363 38.7075C181.421 39.5912 181.939 39.8986 184.764 39.8986H185.782C186.608 39.8986 186.973 39.8602 187.549 39.7834C188.203 39.7065 188.51 39.5912 188.664 39.5144C188.933 39.3799 189.009 39.2838 189.048 39.2454C189.086 39.1686 189.125 39.0725 189.125 38.9572C189.125 38.7843 189.067 38.669 188.99 38.573C188.971 38.5538 188.817 38.4193 188.145 38.2848C187.626 38.1695 186.858 38.0927 185.859 38.0735L183.457 38.035C178.731 37.9198 176.329 36.5749 176.329 34.0581V33.9236C176.329 33.4817 176.387 33.0783 176.502 32.7132C176.637 32.3098 176.886 31.9255 177.271 31.5605C177.636 31.1955 178.116 30.8689 178.712 30.6191C179.269 30.3886 180.018 30.1772 180.979 30.0235C181.92 29.8698 183.015 29.793 184.264 29.793H185.551C186.819 29.793 187.972 29.889 188.952 30.0427C189.951 30.1964 190.777 30.4078 191.373 30.6575C191.987 30.9265 192.506 31.2339 192.91 31.6181C193.313 32.0216 193.582 32.4058 193.755 32.8093C193.889 33.1935 193.966 33.6162 193.966 34.0581V34.4231L188.779 34.3079L188.683 34.0773C188.568 33.8275 188.299 33.6162 187.895 33.4625C187.665 33.3665 187.3 33.2896 186.819 33.2128C186.32 33.1551 185.935 33.1167 185.282 33.1167H184.629C183.668 33.1167 183.015 33.1551 182.458 33.2704C181.786 33.4049 181.651 33.5202 181.632 33.5202C181.574 33.5778 181.555 33.6739 181.555 33.8083C181.555 33.9428 181.613 34.0197 181.651 34.0581C181.651 34.0773 181.786 34.1734 182.4 34.3271C182.842 34.4231 183.515 34.4808 184.398 34.5L186.723 34.5192C189.394 34.5768 191.277 34.8842 192.487 35.499Z" fill="#161616"/>
<path d="M163.769 37.3434L168.361 29.793H174.912V43.2416H169.859V35.4222L164.979 43.2416H162.232L157.352 35.4222V43.2416H152.434V29.793H159.196L163.769 37.3434Z" fill="#161616"/>
<path d="M150.733 43.2416H145.642V29.793H150.733V43.2416Z" fill="#161616"/>
<path d="M130.871 29.793H137.768L144.934 43.2416H139.804L138.613 40.9361H130.006L128.815 43.2416H123.705L130.871 29.793ZM131.87 37.305H136.769L134.771 33.4049H133.868L131.87 37.305Z" fill="#161616"/>
<path d="M113.941 29.793V39.3415H123.585V43.2416H108.85V29.793H113.941Z" fill="#161616"/>
<path d="M102.26 37.6508V37.3434H107.639V37.9006C107.639 38.304 107.562 38.7075 107.409 39.1301C107.274 39.572 106.986 40.0331 106.544 40.5519C106.102 41.0514 105.526 41.5125 104.853 41.8967C104.162 42.281 103.22 42.6076 102.01 42.8573C100.838 43.1263 99.4546 43.2608 97.9176 43.2608H97.1683C96.0348 43.2608 94.9781 43.1647 94.056 43.011C93.0953 42.8573 92.2884 42.646 91.6544 42.3962C90.982 42.1273 90.4056 41.8199 89.8869 41.4356C89.3682 41.0514 88.9647 40.6671 88.6765 40.2829C88.3691 39.8986 88.1386 39.476 87.9464 39.0341C87.7543 38.5922 87.6198 38.1695 87.5622 37.8045C87.5046 37.4395 87.4854 37.0744 87.4854 36.7286V36.2483C87.4854 35.6911 87.543 35.1532 87.6583 34.6729C87.7735 34.1542 88.0425 33.5778 88.4652 32.963C88.8878 32.329 89.4258 31.791 90.1174 31.3492C90.7707 30.9073 91.7313 30.5423 92.9416 30.2349C94.152 29.9467 95.5737 29.793 97.1683 29.793H97.9368C99.4738 29.793 100.876 29.9275 102.067 30.1772C103.259 30.4462 104.219 30.7536 104.892 31.1378C105.564 31.5029 106.121 31.9447 106.563 32.4443C107.005 32.963 107.274 33.4049 107.409 33.8276C107.543 34.231 107.62 34.6345 107.62 34.9995V35.5567H102.317L102.24 35.2877C102.221 35.1724 102.183 35.0764 102.144 34.9995C102.125 34.9803 102.067 34.865 101.779 34.5768C101.568 34.3847 101.318 34.2118 101.049 34.0773C100.742 33.9428 100.281 33.8083 99.6659 33.6931C99.0512 33.5586 98.3403 33.5009 97.5334 33.5009C96.5728 33.5009 95.7466 33.597 95.0742 33.7699C94.4402 33.9236 93.9599 34.1542 93.6525 34.4231C93.3451 34.7113 93.1146 34.9995 92.9801 35.3069C92.8648 35.6143 92.7879 35.9601 92.7879 36.3251V36.5173C92.7879 36.8631 92.8648 37.2089 93.0185 37.5355C93.153 37.8621 93.4027 38.1695 93.7293 38.4961C94.0367 38.7843 94.5363 39.0341 95.1703 39.2262C95.8427 39.4375 96.6496 39.5336 97.5718 39.5336C100.223 39.5336 101.799 38.8996 102.26 37.6508Z" fill="#161616"/>
<path d="M164.401 15.3569C164.593 15.7988 164.709 16.2022 164.766 16.5673C164.805 16.9131 164.843 17.2781 164.843 17.6624V18.1619C164.843 18.5269 164.805 18.8919 164.766 19.2378C164.709 19.5836 164.593 19.987 164.401 20.4481C164.209 20.89 163.979 21.3127 163.69 21.6969C163.383 22.0812 162.96 22.4654 162.442 22.8497C161.904 23.2339 161.289 23.5413 160.597 23.8103C159.925 24.0601 159.079 24.2714 158.061 24.4251C157.062 24.5788 155.929 24.6556 154.699 24.6556H154.123C152.893 24.6556 151.759 24.5788 150.76 24.4251C149.742 24.2714 148.878 24.0601 148.205 23.8103C147.514 23.5413 146.899 23.2339 146.38 22.8497C145.842 22.4846 145.419 22.0812 145.112 21.6969C144.824 21.3127 144.574 20.89 144.401 20.4481C144.209 19.987 144.094 19.5836 144.055 19.2378C143.998 18.8919 143.979 18.5269 143.979 18.1619V17.6624C143.979 17.2781 143.998 16.9131 144.055 16.5673C144.094 16.2214 144.209 15.818 144.401 15.3761C144.574 14.915 144.824 14.4923 145.112 14.1081C145.419 13.7431 145.842 13.3588 146.361 12.9938C146.88 12.6095 147.494 12.3021 148.186 12.0524C148.878 11.8026 149.742 11.5913 150.76 11.4376C151.759 11.2839 152.893 11.207 154.123 11.207H154.699C155.929 11.207 157.043 11.2839 158.042 11.4376C159.06 11.5913 159.906 11.8026 160.597 12.0524C161.289 12.3021 161.904 12.6095 162.422 12.9938C162.96 13.3588 163.364 13.7431 163.671 14.1081C163.979 14.4923 164.209 14.915 164.401 15.3569ZM159.54 18.0082V17.7776C159.54 17.5087 159.502 17.2397 159.425 17.0091C159.348 16.7786 159.195 16.5288 158.983 16.2791C158.772 16.0101 158.484 15.7988 158.119 15.6066C157.754 15.4145 157.254 15.2416 156.601 15.1263C156.063 15.0111 155.448 14.9534 154.757 14.9342C154.661 14.9342 154.468 14.915 154.334 14.915C154.276 14.915 154.219 14.915 154.199 14.915C150.895 14.9726 149.281 15.914 149.281 17.7776V17.9698C149.281 18.3156 149.339 18.6422 149.473 18.9496C149.608 19.257 149.857 19.5836 150.184 19.891C150.511 20.1984 151.049 20.4481 151.759 20.6403C152.451 20.8324 153.277 20.9285 154.257 20.9477C154.334 20.9477 154.564 20.9477 154.699 20.9477C155.583 20.9092 156.37 20.8132 157.024 20.6595C157.735 20.4674 158.272 20.2176 158.599 19.9102C158.945 19.6028 159.195 19.2954 159.329 18.988C159.464 18.6806 159.54 18.354 159.54 18.0082Z" fill="#161616"/>
<path d="M126.505 15.012V11.2656H143.585V15.012H137.61V24.6566H132.461V15.012H126.505Z" fill="#161616"/>
<path d="M120.79 17.452V11.2656H125.881V17.6825C125.881 18.2397 125.804 18.7968 125.67 19.3732C125.535 19.9304 125.266 20.5644 124.863 21.2176C124.459 21.8708 123.921 22.4472 123.307 22.9467C122.673 23.4462 121.808 23.8497 120.713 24.1763C119.637 24.5029 118.388 24.6566 117.024 24.6566H116.352C115.295 24.6566 114.334 24.5797 113.47 24.4068C112.586 24.2531 111.837 24.0226 111.222 23.7344C110.607 23.4654 110.069 23.1196 109.608 22.7162C109.128 22.3127 108.744 21.89 108.475 21.4866C108.206 21.0639 107.975 20.622 107.783 20.1417C107.61 19.6806 107.495 19.2387 107.437 18.8545C107.38 18.4702 107.36 18.0668 107.36 17.6825V11.2656H112.452V17.452C112.452 17.8554 112.509 18.2397 112.625 18.5855C112.74 18.9313 112.951 19.2772 113.22 19.6038C113.489 19.9304 113.912 20.1801 114.469 20.3723C115.064 20.5836 115.795 20.6796 116.64 20.6796C117.485 20.6796 118.196 20.5836 118.772 20.3723C119.33 20.1801 119.752 19.9112 120.021 19.6038C120.309 19.2579 120.502 18.9121 120.617 18.5855C120.732 18.2397 120.79 17.8554 120.79 17.452Z" fill="#161616"/>
<path d="M94.2096 11.207H101.107L108.273 24.6556H103.143L101.952 22.3502H93.3451L92.1539 24.6556H87.0435L94.2096 11.207ZM95.2087 18.719H100.108L98.1097 14.8189H97.2068L95.2087 18.719Z" fill="#161616"/>
<path d="M205.283 0.0546875V71.9446H0V0.0546875H205.283ZM1.09338 70.8512H204.189V1.14807H1.09338V70.8512Z" fill="black"/>
</svg>
