<svg width="316" height="131" viewBox="0 0 316 131" fill="none" xmlns="http://www.w3.org/2000/svg">
<path d="M26.0332 14.7002C28.2332 14.7002 30.0332 16.5002 30.0332 18.7002C30.0332 20.9002 28.2332 22.7002 26.0332 22.7002C23.8332 22.7002 22.0332 20.9002 22.0332 18.7002C22.0332 16.5002 23.7332 14.7002 26.0332 14.7002Z" fill="white"/>
<path d="M20.8328 125.8C19.0328 125.8 17.3328 125.3 15.6328 124.3C9.73283 121 6.03283 112.2 5.33283 100.3C4.83283 91.9003 5.93283 82.2003 8.73283 72.6003C4.23283 68.1003 1.23283 62.5003 0.332829 56.7003C-1.46717 45.5003 4.13283 33.4003 14.7328 25.3003C15.6328 24.6003 16.8328 24.8003 17.5328 25.7003C18.2328 26.6003 18.0328 27.8003 17.1328 28.5003C7.63283 35.7003 2.63283 46.3003 4.23283 56.1003C4.93283 60.5003 6.93283 64.6003 10.1328 68.3003C14.2328 56.9003 20.9328 46.1003 30.6328 39.0003C39.9328 32.2003 56.9328 25.2003 64.1328 32.0003C68.1328 35.8003 69.3328 44.4003 67.1328 53.9003C64.6328 64.8003 57.2328 78.0003 43.9328 82.1003C34.8328 84.9003 24.0328 83.3003 15.1328 77.7003C14.0328 77.0003 13.0328 76.3003 12.1328 75.6003C9.73283 84.0003 8.83283 92.6003 9.33283 100C9.93283 110.4 13.0328 118.2 17.6328 120.8C22.9328 123.9 28.8328 118.9 39.5328 109C50.6328 98.9003 65.8328 85.0003 88.6328 76.8003C130.833 61.7003 167.533 73.0003 199.933 83.0003C233.333 93.3003 262.133 102.2 291.733 83.7003C299.533 78.8003 306.433 72.2003 312.033 64.1003C312.633 63.2003 313.933 63.0003 314.833 63.6003C315.733 64.2003 315.933 65.5003 315.333 66.4003C309.333 74.9003 302.133 81.9003 293.833 87.1003C262.733 106.6 231.633 97.0003 198.733 86.8003C165.433 76.5003 131.033 65.8003 90.0328 80.6003C67.9328 88.5003 53.1328 102.1 42.2328 112C33.8328 119.8 27.2328 125.8 20.8328 125.8ZM13.2328 71.4003C14.4328 72.4003 15.7328 73.4003 17.1328 74.3003C25.0328 79.2003 34.8328 80.8003 42.6328 78.3003C54.3328 74.6003 60.9328 62.8003 63.1328 52.9003C64.9328 45.0003 64.2328 37.5003 61.3328 34.8003C56.6328 30.4003 42.5328 35.1003 32.9328 42.1003C23.3328 49.2003 16.9328 60.0003 13.2328 71.4003Z" fill="white"/>
<path d="M82.3324 45.9002C83.0324 43.9002 84.4324 43.2002 86.5324 43.2002H88.6324C90.6324 43.2002 92.3324 43.7002 93.3324 46.4002L103.832 75.6002C104.132 76.4002 104.632 78.0002 104.632 78.9002C104.632 81.0002 102.732 82.7002 100.532 82.7002C98.6324 82.7002 97.2324 82.0002 96.6324 80.3002L94.4324 74.0002H80.4324L78.1324 80.4002C77.5324 82.1002 76.3324 82.8002 74.2324 82.8002C71.8324 82.8002 70.2324 81.3002 70.2324 79.0002C70.2324 78.0002 70.7324 76.5002 71.0324 75.7002L82.3324 45.9002ZM87.6324 52.6002H87.5324L82.3324 68.0002H92.5324L87.6324 52.6002Z" fill="black"/>
<path d="M121.233 53.7002C127.733 53.7002 132.533 57.4002 132.533 61.0002C132.533 63.2002 130.933 64.3002 128.933 64.3002C125.233 64.3002 126.633 59.7002 121.033 59.7002C118.033 59.7002 114.433 61.8002 114.433 68.8002C114.433 73.6002 116.733 76.8002 120.933 76.8002C126.333 76.8002 125.133 71.8002 129.233 71.8002C131.233 71.8002 132.433 73.2002 132.433 74.8002C132.433 78.2002 128.633 82.9002 120.633 82.9002C111.133 82.9002 106.633 77.0002 106.633 68.9002C106.733 59.9002 111.833 53.7002 121.233 53.7002Z" fill="black"/>
<path d="M149.733 53.7002C156.233 53.7002 161.033 57.4002 161.033 61.0002C161.033 63.2002 159.433 64.3002 157.433 64.3002C153.733 64.3002 155.133 59.7002 149.533 59.7002C146.533 59.7002 142.933 61.8002 142.933 68.8002C142.933 73.6002 145.233 76.8002 149.433 76.8002C154.833 76.8002 153.633 71.8002 157.733 71.8002C159.733 71.8002 160.933 73.2002 160.933 74.8002C160.933 78.2002 157.133 82.9002 149.133 82.9002C139.633 82.9002 135.133 77.0002 135.133 68.9002C135.233 59.9002 140.233 53.7002 149.733 53.7002Z" fill="black"/>
<path d="M169.433 43C171.633 43 173.433 44.8 173.433 47C173.433 49.2 171.633 51 169.433 51C167.233 51 165.433 49.2 165.433 47C165.433 44.8 167.233 43 169.433 43Z" fill="white"/>
<path d="M165.633 57.5001C165.633 55.4001 166.433 53.6001 169.533 53.6001C172.633 53.6001 173.433 55.4001 173.433 57.5001V78.9001C173.433 81.0001 172.633 82.8001 169.533 82.8001C166.433 82.8001 165.633 81.0001 165.633 78.9001V57.5001Z" fill="black"/>
<path d="M206.132 79.1002C206.132 81.5002 205.032 82.8002 202.632 82.8002C200.332 82.8002 199.132 81.5002 199.132 79.1002V77.9002H199.032C197.732 81.2002 194.632 82.8002 190.832 82.8002C184.332 82.8002 178.732 78.1002 178.732 68.1002C178.732 60.7002 182.532 53.7002 190.632 53.7002C194.032 53.7002 196.732 55.1002 198.232 57.6002H198.332V47.1002C198.332 44.6002 199.832 43.2002 202.232 43.2002C204.632 43.2002 206.132 44.5002 206.132 47.1002V79.1002ZM192.632 76.7002C197.132 76.7002 198.832 72.7002 198.832 68.3002C198.832 64.3002 197.332 59.7002 192.632 59.7002C187.732 59.7002 186.532 64.7002 186.532 68.3002C186.432 72.8002 188.532 76.6002 192.632 76.7002Z" fill="black"/>
<path d="M218.832 69.7002C218.832 73.8002 221.532 76.8002 226.032 76.8002C231.832 76.8002 231.832 73.0002 235.032 73.0002C236.932 73.0002 238.232 74.6002 238.232 76.0002C238.232 80.7002 230.732 82.8002 226.132 82.8002C215.332 82.8002 211.232 75.5002 211.232 68.8002C211.232 59.8002 216.732 53.7002 225.832 53.7002C234.732 53.7002 239.832 60.0002 239.832 66.4002C239.832 69.1002 239.032 69.7002 236.432 69.7002H218.832ZM232.432 65.2002C232.032 61.6002 229.332 59.1002 225.932 59.1002C222.032 59.1002 219.732 61.5002 218.832 65.2002H232.432Z" fill="black"/>
<path d="M244.733 57.5001C244.733 55.2001 245.833 53.6001 248.233 53.6001C250.633 53.6001 251.733 55.1001 251.733 57.5001V58.5001H251.833C254.033 55.6001 256.833 53.6001 261.233 53.6001C265.933 53.6001 271.033 55.9001 271.033 63.8001V78.9001C271.033 81.0001 270.233 82.8001 267.133 82.8001C264.033 82.8001 263.233 81.0001 263.233 78.9001V65.4001C263.233 62.3001 261.733 60.0001 258.333 60.0001C255.633 60.0001 252.433 62.2001 252.433 66.1001V78.9001C252.433 81.0001 251.633 82.8001 248.533 82.8001C245.433 82.8001 244.633 81.0001 244.633 78.9001V57.5001H244.733Z" fill="black"/>
<path d="M279.132 59.4002H277.832C275.632 59.4002 274.732 58.6002 274.732 56.9002C274.732 55.2002 275.632 54.4002 277.832 54.4002H279.132V49.6002C279.132 47.1002 280.632 45.7002 283.032 45.7002C285.432 45.7002 286.932 47.0002 286.932 49.6002V54.3002H289.232C291.532 54.3002 292.732 55.0002 292.732 56.8002C292.732 58.7002 291.532 59.3002 289.232 59.3002H286.932V74.8002C286.932 76.0002 287.532 76.6002 288.932 76.6002H290.032C291.732 76.6002 292.732 77.6002 292.732 79.2002C292.732 81.4002 290.832 82.6002 287.132 82.6002C281.532 82.6002 279.132 80.3002 279.132 75.7002V59.4002Z" fill="black"/>
<path d="M71.7 90.7998C81.7 90.7998 87.1 97.0998 87.1 100.8C87.1 103.2 85.8 104.7 83.2 104.7C78.2 104.7 79.6 97.7998 71.7 97.7998C66.2 97.7998 61.7 102.5 61.7 110.8C61.7 117.7 64.5 123.8 72 123.8C78.8 123.8 78.7 116.5 82.9 116.5C85 116.5 87.1 117.7 87.1 119.8C87.1 125.3 80.4 130.8 72 130.8C60.1 130.8 53 124 53 110.8C53 99.9998 59.4 90.7998 71.7 90.7998Z" fill="black"/>
<path d="M92 94.9C92 92.4 93.5 91 95.9 91C98.3 91 99.8 92.3 99.8 94.9V126.7C99.8 129.2 98.3 130.6 95.9 130.6C93.5 130.6 92 129.3 92 126.7V94.9Z" fill="black"/>
<path d="M132 122.4C132 125.6 132.8 126.4 132.8 127.6C132.8 129.3 131.2 130.6 129.3 130.6C126 130.6 124.8 128.5 124.7 126.1C121.7 129.4 118.2 130.6 114.1 130.6C109.7 130.6 105.4 127.6 105.4 122.7C105.4 116.3 110.3 114.5 116.2 113.8L120.9 113.3C122.8 113.1 124.2 112.7 124.2 110.4C124.2 108.2 121.9 107.2 119.3 107.2C113.6 107.2 113.4 111.4 110.3 111.4C108.3 111.4 107 110 107 108.4C107 105.3 111.3 101.4 119.3 101.4C126.7 101.4 131.9 103.8 131.9 109.4V122.4H132ZM124.3 116.8C123.5 117.6 121.9 117.9 121 118L118.2 118.4C115 118.9 113.2 119.9 113.2 122.2C113.2 123.9 114.8 125.4 117.5 125.4C121.7 125.4 124.3 122.6 124.3 119.8V116.8Z" fill="black"/>
<path d="M143 90.7998C145.2 90.7998 147 92.5998 147 94.7998C147 96.9998 145.2 98.7998 143 98.7998C140.8 98.7998 139 96.9998 139 94.7998C139 92.5998 140.8 90.7998 143 90.7998Z" fill="white"/>
<path d="M139.1 105.3C139.1 103.2 139.9 101.4 143 101.4C146.1 101.4 146.9 103.2 146.9 105.3V126.7C146.9 128.8 146.1 130.6 143 130.6C139.9 130.6 139.1 128.8 139.1 126.7V105.3Z" fill="black"/>
<path d="M153.4 105.3C153.4 103 154.8 101.4 157.1 101.4C159.4 101.4 160.8 102.9 160.8 105.3V106.3H160.9C162.9 103.2 166.3 101.4 170.2 101.4C172.9 101.4 176.2 102.6 177.6 106.3C179.8 103.3 182.5 101.4 186.7 101.4C192.1 101.4 196.3 103.8 196.3 110.8V126.6C196.3 128.7 195.5 130.5 192.4 130.5C189.3 130.5 188.5 128.7 188.5 126.6V112.8C188.5 110 187.3 107.8 184.3 107.8C181.3 107.8 178.7 110.2 178.7 113.8V126.7C178.7 128.8 177.9 130.6 174.8 130.6C171.7 130.6 170.9 128.8 170.9 126.7V112.8C170.9 110 169.7 107.8 166.7 107.8C163.7 107.8 161.1 110.2 161.1 113.8V126.7C161.1 128.8 160.3 130.6 157.2 130.6C154.1 130.6 153.3 128.8 153.3 126.7V105.3H153.4Z" fill="black"/>
<path d="M212.9 101.4C218.8 101.4 224.7 103.7 224.7 107.3C224.7 109.1 223.5 110.7 221.5 110.7C218.5 110.7 218.4 107.1 213.5 107.1C210.8 107.1 209 107.8 209 109.5C209 111.3 210.8 111.7 213.1 112.3L216.3 113C220.7 114 225.9 115.9 225.9 121.3C225.9 127.6 219.8 130.5 214 130.5C207 130.5 201.2 127.4 201.2 123.6C201.2 121.9 202.2 120.4 204.3 120.4C207.6 120.4 208 125.2 213.7 125.2C216.5 125.2 218.2 124 218.2 122.4C218.2 120.4 216.5 120.1 213.7 119.4L209.1 118.3C204.6 117.2 201.1 115.3 201.1 110.1C201.3 103.8 207.6 101.4 212.9 101.4Z" fill="black"/>
<path d="M98 5.1C98 1.5 99.7 0 103.5 0C105.3 0 106.9 0.7 107.8 2.3L123 26.8H123.1V4.2C123.1 1.4 124.7 0 127.3 0C129.9 0 131.5 1.4 131.5 4.2V34.1C131.5 37.5 130 39.5 126.4 39.5C123.6 39.5 122.7 38.9 121.6 37.2L106.5 13.4H106.4V35.4C106.4 38.2 104.8 39.6 102.2 39.6C99.6 39.6 98 38.2 98 35.4V5.1Z" fill="black"/>
<path d="M145 26.5C145 30.6 147.7 33.6 152.2 33.6C158 33.6 158 29.8 161.2 29.8C163.1 29.8 164.4 31.4 164.4 32.8C164.4 37.5 156.9 39.6 152.3 39.6C141.5 39.6 137.4 32.3 137.4 25.6C137.4 16.6 142.9 10.5 152 10.5C160.9 10.5 166 16.8 166 23.2C166 25.9 165.2 26.5 162.6 26.5H145ZM158.6 22C158.2 18.4 155.5 15.9 152.1 15.9C148.2 15.9 145.9 18.3 145 22H158.6Z" fill="black"/>
<path d="M169 16.8999C168.7 16.0999 168.5 15.1999 168.5 13.9999C168.5 11.9999 170.3 10.3999 172.3 10.3999C175.2 10.3999 175.6 11.8999 176.1 14.1999L180.2 31.1999H180.3L183.6 15.7999C184.2 12.7999 184.9 10.3999 188.5 10.4999C192.2 10.3999 192.9 12.6999 193.6 15.7999L196.9 31.1999H197L200.8 14.1999C201.3 11.9999 201.8 10.3999 204.6 10.3999C206.6 10.3999 208.4 11.9999 208.4 13.9999C208.4 15.1999 208.1 15.9999 207.9 16.8999L202.2 35.2999C201.1 38.9999 200.2 39.4999 197.2 39.4999C194 39.4999 193.2 38.4999 192.4 35.4999L188.6 20.2999H188.5L184.7 35.4999C183.9 38.5999 183.1 39.4999 179.9 39.4999C176.8 39.4999 176 38.9999 174.9 35.2999L169 16.8999Z" fill="black"/>
</svg>
