<svg width="344" height="121" viewBox="0 0 344 121" fill="none" xmlns="http://www.w3.org/2000/svg">
<path d="M120.755 0H0.440918V120.314H120.755V0Z" fill="white"/>
<path d="M79.1717 100.332C69.661 99.9007 54.3626 96.4679 39.3212 81.4266C24.2799 66.3852 20.8553 51.0868 20.4242 41.5761C20.1754 36.1118 23.6497 31.1699 28.8652 29.5115L33.8154 27.9361C35.6479 27.3557 37.6214 28.2843 38.3428 30.0671L44.5616 45.5479C45.084 46.858 44.8187 48.3505 43.8651 49.3953L38.9895 54.7518C38.1852 55.639 37.9531 56.9077 38.3842 58.0188C39.4539 60.7634 42.157 66.1613 48.3676 72.3719C54.5782 78.5825 59.9761 81.2773 62.7207 82.3553C63.8401 82.7947 65.1088 82.5626 65.9877 81.75L71.3442 76.8744C72.389 75.9208 73.8815 75.6555 75.1916 76.1779L90.6724 82.3967C92.4552 83.1181 93.3921 85.0916 92.8034 86.9241L91.228 91.8743C89.5779 97.1064 84.636 100.572 79.1717 100.332Z" fill="#1B5BD0"/>
<path d="M96.8009 66.7891C96.4029 66.391 96.1458 65.8438 96.1292 65.2302C95.781 54.542 91.4195 44.4841 83.8408 36.9136C76.2621 29.3349 66.2041 24.9734 55.5242 24.6252C54.2473 24.5837 53.2523 23.5141 53.2937 22.2454C53.3352 20.9685 54.4048 19.9735 55.6735 20.0149C67.5308 20.4046 78.6998 25.2471 87.1077 33.655C95.5156 42.0629 100.366 53.2319 100.748 65.0892C100.789 66.3662 99.7859 67.4275 98.5173 67.469C97.8457 67.4856 97.2403 67.2285 96.8009 66.7891Z" fill="#1B5BD0"/>
<path d="M86.1622 66.7886C85.7642 66.3905 85.5154 65.8599 85.4906 65.2546C85.1506 57.4022 81.8919 50.0059 76.3198 44.4255C70.7477 38.8451 63.3431 35.603 55.4908 35.2631C54.2138 35.205 53.2271 34.1271 53.2851 32.8584C53.3432 31.5815 54.4211 30.5948 55.6898 30.6528C64.703 31.0425 73.1855 34.7739 79.5868 41.1751C85.9881 47.5764 89.7194 56.0589 90.1091 65.0721C90.1672 66.3491 89.1721 67.427 87.9035 67.4768C87.2236 67.4934 86.6017 67.2363 86.1622 66.7886Z" fill="#1B5BD0"/>
<path d="M75.5141 66.7914C75.1327 66.41 74.8839 65.8876 74.8425 65.3071C74.5191 60.2657 72.3715 55.5228 68.7977 51.949C65.224 48.3753 60.481 46.2277 55.4396 45.9043C54.171 45.8214 53.2008 44.7269 53.2838 43.4499C53.3667 42.173 54.4612 41.2111 55.7381 41.294C61.899 41.6921 67.6949 44.3123 72.0647 48.6821C76.4345 53.0518 79.0547 58.8478 79.4527 65.0086C79.5356 66.2773 78.5655 67.3801 77.2969 67.463C76.6086 67.5128 75.9702 67.2474 75.5141 66.7914Z" fill="#1B5BD0"/>
<path d="M259.168 93.5152L266.853 80.8789H277.817V103.386H269.361V90.2999L261.194 103.386H256.596L248.429 90.2999V103.386H240.198V80.8789H251.516L259.168 93.5152Z" fill="white"/>
<path d="M215.476 80.8789H227.019L239.013 103.386H230.428L228.434 99.5279H214.029L212.036 103.386H203.483L215.476 80.8789ZM217.148 93.4509H225.347L222.003 86.9238H220.492L217.148 93.4509Z" fill="white"/>
<path d="M185.069 94.9621V97.2129H202.368V103.386H176.613V80.8789H202.368V86.9881H185.069V88.853H202.368V94.9621H185.069Z" fill="white"/>
<path d="M146.47 87.2465V80.9766H175.054V87.2465H165.054V103.388H156.437V87.2465H146.47Z" fill="white"/>
<path d="M322.585 59.3191C324.74 60.4123 325.833 62.1165 325.833 64.3994V64.7852C325.833 65.6212 325.704 66.3607 325.511 67.0038C325.286 67.679 324.868 68.3864 324.225 69.0616C323.582 69.769 322.746 70.3478 321.685 70.7979C320.656 71.2481 319.306 71.6018 317.569 71.8911C315.865 72.1484 313.84 72.277 311.589 72.277H309.435C307.087 72.277 304.997 72.1162 303.261 71.7625C301.428 71.3767 300.078 70.9587 299.081 70.4121C298.052 69.8655 297.248 69.2224 296.637 68.4507C296.027 67.6469 295.641 66.9717 295.48 66.2964C295.319 65.6855 295.255 64.7852 295.255 64.7531L295.223 64.11L303.936 64.1421L303.968 64.6888C304.065 66.1678 304.933 66.6823 309.66 66.6823H311.364C312.746 66.6823 313.357 66.618 314.322 66.4894C315.415 66.3607 315.93 66.1678 316.187 66.0392C316.637 65.8141 316.766 65.6534 316.83 65.5891C316.894 65.4604 316.958 65.2997 316.958 65.1068C316.958 64.8174 316.862 64.6245 316.733 64.4637C316.701 64.4315 316.444 64.2065 315.319 63.9814C314.45 63.7885 313.164 63.6598 311.492 63.6277L307.473 63.5634C299.563 63.3705 295.544 61.1197 295.544 56.9076V56.6825C295.544 55.943 295.641 55.2678 295.834 54.6569C296.059 53.9816 296.477 53.3386 297.12 52.7277C297.731 52.1167 298.534 51.5701 299.531 51.1521C300.464 50.7663 301.718 50.4126 303.325 50.1554C304.901 49.8981 306.734 49.7695 308.824 49.7695H310.978C313.1 49.7695 315.029 49.9303 316.669 50.1875C318.341 50.4448 319.724 50.7984 320.72 51.2164C321.749 51.6666 322.617 52.181 323.293 52.8241C323.968 53.4993 324.418 54.1424 324.707 54.8176C324.933 55.4607 325.061 56.1681 325.061 56.9076V57.5185L316.38 57.3256L316.219 56.9398C316.026 56.5218 315.576 56.1681 314.901 55.9109C314.515 55.7501 313.904 55.6215 313.1 55.4929C312.264 55.3964 311.621 55.3321 310.528 55.3321H309.435C307.827 55.3321 306.734 55.3964 305.801 55.5893C304.676 55.8144 304.451 56.0073 304.419 56.0073C304.322 56.1038 304.29 56.2645 304.29 56.4896C304.29 56.7147 304.386 56.8433 304.451 56.9076C304.451 56.9398 304.676 57.1005 305.705 57.3578C306.444 57.5185 307.57 57.615 309.049 57.6471L312.939 57.6793C317.409 57.7758 320.56 58.2902 322.585 59.3191Z" fill="white"/>
<path d="M274.523 62.4059L282.207 49.7695H293.172V72.277H284.715V59.1905L276.548 72.277H271.951L263.784 59.1905V72.277H255.552V49.7695H266.87L274.523 62.4059Z" fill="white"/>
<path d="M252.707 72.277H244.186V49.7695H252.707V72.277Z" fill="white"/>
<path d="M219.464 49.7695H231.008L243.001 72.277H234.416L232.422 68.4186H218.018L216.024 72.277H207.471L219.464 49.7695ZM221.136 62.3416H229.336L225.992 55.8144H224.48L221.136 62.3416Z" fill="white"/>
<path d="M191.131 49.7695V65.7498H207.272V72.277H182.61V49.7695H191.131Z" fill="white"/>
<path d="M171.581 62.9203V62.4059H180.584V63.3383C180.584 64.0135 180.455 64.6888 180.198 65.3961C179.973 66.1357 179.491 66.9074 178.751 67.7755C178.012 68.6115 177.047 69.3832 175.922 70.0262C174.764 70.6693 173.189 71.2159 171.163 71.6339C169.202 72.0841 166.887 72.3091 164.314 72.3091H163.06C161.163 72.3091 159.395 72.1484 157.851 71.8911C156.244 71.6339 154.893 71.2802 153.832 70.8622C152.707 70.4121 151.742 69.8976 150.874 69.2546C150.006 68.6115 149.331 67.9684 148.848 67.3253C148.334 66.6823 147.948 65.9749 147.627 65.2354C147.305 64.4958 147.08 63.7885 146.984 63.1775C146.887 62.5666 146.855 61.9557 146.855 61.3769V60.5731C146.855 59.6407 146.951 58.7404 147.144 57.9365C147.337 57.0684 147.787 56.1038 148.495 55.0749C149.202 54.0138 150.102 53.1135 151.26 52.374C152.353 51.6344 153.961 51.0235 155.987 50.5091C158.012 50.0268 160.392 49.7695 163.06 49.7695H164.346C166.919 49.7695 169.266 49.9946 171.259 50.4126C173.253 50.8628 174.861 51.3772 175.986 52.0203C177.111 52.6312 178.044 53.3707 178.783 54.2067C179.523 55.0749 179.973 55.8144 180.198 56.5218C180.423 57.197 180.552 57.8722 180.552 58.4831V59.4156H171.677L171.549 58.9654C171.517 58.7725 171.452 58.6117 171.388 58.4831C171.356 58.451 171.259 58.2581 170.777 57.7758C170.424 57.4542 170.006 57.1648 169.555 56.9398C169.041 56.7147 168.269 56.4896 167.24 56.2967C166.211 56.0716 165.022 55.9752 163.671 55.9752C162.064 55.9752 160.681 56.1359 159.556 56.4253C158.495 56.6825 157.691 57.0684 157.176 57.5185C156.662 58.0008 156.276 58.4831 156.051 58.9976C155.858 59.512 155.729 60.0908 155.729 60.7017V61.0233C155.729 61.602 155.858 62.1808 156.115 62.7274C156.34 63.274 156.758 63.7885 157.305 64.3351C157.819 64.8174 158.655 65.2354 159.716 65.5569C160.842 65.9106 162.192 66.0714 163.736 66.0714C168.173 66.0714 170.809 65.0103 171.581 62.9203Z" fill="white"/>
<path d="M275.581 25.6092C275.902 26.3488 276.095 27.024 276.191 27.6349C276.256 28.2137 276.32 28.8246 276.32 29.4676V30.3036C276.32 30.9145 276.256 31.5255 276.191 32.1042C276.095 32.683 275.902 33.3582 275.581 34.1299C275.259 34.8694 274.873 35.5768 274.391 36.2199C273.876 36.8629 273.169 37.506 272.301 38.1491C271.401 38.7922 270.372 39.3066 269.214 39.7568C268.089 40.1748 266.674 40.5284 264.97 40.7857C263.298 41.0429 261.401 41.1715 259.343 41.1715H258.378C256.321 41.1715 254.424 41.0429 252.752 40.7857C251.047 40.5284 249.601 40.1748 248.475 39.7568C247.318 39.3066 246.289 38.7922 245.421 38.1491C244.52 37.5382 243.813 36.8629 243.298 36.2199C242.816 35.5768 242.398 34.8694 242.109 34.1299C241.787 33.3582 241.594 32.683 241.53 32.1042C241.434 31.5255 241.401 30.9145 241.401 30.3036V29.4676C241.401 28.8246 241.434 28.2137 241.53 27.6349C241.594 27.0561 241.787 26.3809 242.109 25.6414C242.398 24.8697 242.816 24.1623 243.298 23.5192C243.813 22.9083 244.52 22.2653 245.388 21.6543C246.257 21.0113 247.285 20.4968 248.443 20.0788C249.601 19.6608 251.047 19.3071 252.752 19.0499C254.424 18.7927 256.321 18.6641 258.378 18.6641H259.343C261.401 18.6641 263.266 18.7927 264.938 19.0499C266.642 19.3071 268.057 19.6608 269.214 20.0788C270.372 20.4968 271.401 21.0113 272.269 21.6543C273.169 22.2653 273.844 22.9083 274.359 23.5192C274.873 24.1623 275.259 24.8697 275.581 25.6092ZM267.446 30.0464V29.6606C267.446 29.2104 267.381 28.7603 267.253 28.3744C267.124 27.9886 266.867 27.5706 266.513 27.1526C266.16 26.7024 265.677 26.3488 265.066 26.0272C264.455 25.7057 263.619 25.4163 262.526 25.2234C261.626 25.0305 260.597 24.934 259.439 24.9018C259.279 24.9018 258.957 24.8697 258.732 24.8697C258.636 24.8697 258.539 24.8697 258.507 24.8697C252.977 24.9662 250.276 26.5417 250.276 29.6606V29.9821C250.276 30.5609 250.372 31.1075 250.597 31.6219C250.822 32.1364 251.24 32.683 251.787 33.1974C252.334 33.7119 253.234 34.1299 254.424 34.4514C255.581 34.773 256.964 34.9337 258.603 34.9659C258.732 34.9659 259.118 34.9659 259.343 34.9659C260.822 34.9016 262.14 34.7408 263.234 34.4836C264.423 34.1621 265.324 33.7441 265.87 33.2296C266.449 32.7151 266.867 32.2007 267.092 31.6862C267.317 31.1718 267.446 30.6252 267.446 30.0464Z" fill="white"/>
<path d="M212.158 25.0297V18.7598H240.742V25.0297H230.742V41.1708H222.125V25.0297H212.158Z" fill="white"/>
<path d="M202.593 29.1132V18.7598H211.114V29.499C211.114 30.4315 210.985 31.3639 210.76 32.3285C210.535 33.261 210.085 34.3221 209.41 35.4153C208.734 36.5085 207.834 37.4731 206.805 38.3091C205.744 39.1451 204.297 39.8203 202.464 40.3669C200.664 40.9135 198.574 41.1708 196.291 41.1708H195.166C193.397 41.1708 191.789 41.0421 190.342 40.7528C188.863 40.4955 187.609 40.1097 186.581 39.6274C185.552 39.1772 184.651 38.5985 183.88 37.9233C183.076 37.248 182.433 36.5407 181.983 35.8654C181.532 35.1581 181.147 34.4185 180.825 33.6147C180.536 32.843 180.343 32.1035 180.246 31.4604C180.15 30.8173 180.118 30.1421 180.118 29.499V18.7598H188.638V29.1132C188.638 29.7884 188.735 30.4315 188.928 31.0103C189.121 31.589 189.474 32.1678 189.924 32.7144C190.375 33.261 191.082 33.679 192.014 34.0005C193.011 34.3542 194.233 34.515 195.648 34.515C197.063 34.515 198.252 34.3542 199.217 34.0005C200.149 33.679 200.857 33.2288 201.307 32.7144C201.789 32.1356 202.111 31.5569 202.304 31.0103C202.497 30.4315 202.593 29.7884 202.593 29.1132Z" fill="white"/>
<path d="M158.109 18.6641H169.652L181.645 41.1715H173.06L171.067 37.3131H156.662L154.669 41.1715H146.116L158.109 18.6641ZM159.781 31.2361H167.98L164.636 24.7089H163.125L159.781 31.2361Z" fill="white"/>
<path d="M344 0V120.314H0.440918V0H344ZM2.27079 118.484H342.17V1.82987H2.27079V118.484Z" fill="white"/>
</svg>
